<?xml version="1.0" encoding="utf-8"?>
<!-- Generator: Adobe Illustrator 16.0.0, SVG Export Plug-In . SVG Version: 6.00 Build 0)  -->
<!DOCTYPE svg PUBLIC "-//W3C//DTD SVG 1.1//EN" "http://www.w3.org/Graphics/SVG/1.1/DTD/svg11.dtd">
<svg version="1.1" id="Isolation_Mode" xmlns="http://www.w3.org/2000/svg" xmlns:xlink="http://www.w3.org/1999/xlink" x="0px"
	 y="0px" width="30.024px" height="31.154px" viewBox="0 0 30.024 31.154" enable-background="new 0 0 30.024 31.154"
	 xml:space="preserve">
<g>
	<path fill="#FFFFFF" d="M15.986,17.934c-0.872-0.617-2.538-2.118-2.538-3.001c0-1.036,0.295-1.544,1.851-2.761
		c1.596-1.247,2.726-3,2.726-5.038c0-2.427-1.082-4.792-3.11-5.573h3.059L20.132,0h-9.649C6.159,0,2.087,3.277,2.087,7.072
		c0,3.879,2.949,7.011,7.35,7.011c0.307,0,0.603-0.007,0.895-0.027c-0.285,0.546-0.491,1.163-0.491,1.801
		c0,1.078,0.581,1.953,1.314,2.667c-0.555,0-1.09,0.017-1.671,0.017C4.124,18.54,0,21.951,0,25.49c0,3.484,4.521,5.664,9.878,5.664
		c6.108,0,9.482-3.465,9.482-6.95C19.36,21.409,18.536,19.735,15.986,17.934z M10.833,13.099c-2.485-0.074-4.849-2.78-5.277-6.044
		C5.126,3.79,6.794,1.292,9.279,1.365c2.484,0.075,4.849,2.693,5.277,5.958C14.984,10.588,13.318,13.174,10.833,13.099z
		 M9.859,29.613c-3.704,0-6.379-2.344-6.379-5.16c0-2.76,3.318-5.058,7.022-5.018c0.864,0.01,1.669,0.148,2.4,0.385
		c2.009,1.399,3.452,2.188,3.858,3.782c0.077,0.323,0.119,0.654,0.119,0.994C16.88,27.414,15.066,29.613,9.859,29.613z"/>
	<polygon fill="#FFFFFF" points="26.268,13.383 26.268,9.628 23.245,9.628 23.245,13.383 19.489,13.383 19.489,16.406
		23.245,16.406 23.245,20.163 26.268,20.163 26.268,16.406 30.024,16.406 30.024,13.383 	"/>
</g>
</svg>
