<?xml version="1.0" encoding="utf-8"?>
<!-- Generator: Adobe Illustrator 16.0.0, SVG Export Plug-In . SVG Version: 6.00 Build 0)  -->
<!DOCTYPE svg PUBLIC "-//W3C//DTD SVG 1.1//EN" "http://www.w3.org/Graphics/SVG/1.1/DTD/svg11.dtd">
<svg version="1.1" id="Isolation_Mode" xmlns="http://www.w3.org/2000/svg" xmlns:xlink="http://www.w3.org/1999/xlink" x="0px"
	 y="0px" width="31.885px" height="27.899px" viewBox="0 0 31.885 27.899" enable-background="new 0 0 31.885 27.899"
	 xml:space="preserve">
<g>
	<g>
		<path fill="#FFFFFF" d="M31.885,3.301c-1.18,0.57-2.434,0.938-3.763,1.109c1.354-0.872,2.394-2.245,2.886-3.89
			c-1.267,0.803-2.669,1.377-4.163,1.712C25.657,0.857,23.95,0,22.074,0c-3.613,0-6.541,3.149-6.541,7.044
			c0,0.547,0.057,1.088,0.165,1.597C10.271,8.36,5.444,5.545,2.216,1.293C1.655,2.33,1.334,3.538,1.334,4.833
			c0,2.438,1.153,4.606,2.912,5.851C3.171,10.64,2.163,10.34,1.282,9.808c0,0.029,0,0.065,0,0.096c0,3.406,2.254,6.248,5.247,6.906
			C5.98,16.97,5.401,17.042,4.8,17.042c-0.42,0-0.819-0.029-1.223-0.125c0.829,2.808,3.247,4.848,6.109,4.89
			c-2.239,1.898-5.059,3.013-8.124,3.013C1.033,24.82,0.51,24.79,0,24.722c2.894,2.007,6.326,3.177,10.028,3.177
			c12.031,0,18.614-10.734,18.614-20.04c0-0.297-0.007-0.599-0.021-0.901C29.897,5.952,31.008,4.709,31.885,3.301z"/>
	</g>
</g>
</svg>
